%FSLAX34Y34*%
%MOMM*%
%LNSOLDERMASK_TOP*%
G71*
G01*
%ADD10C, 0.30*%
%ADD11C, 2.90*%
%ADD12C, 2.70*%
%ADD13C, 0.70*%
%ADD14R, 2.30X1.60*%
%ADD15R, 1.57X0.95*%
%ADD16R, 0.90X1.10*%
%ADD17R, 1.10X0.90*%
%ADD18C, 2.60*%
%ADD19C, 1.40*%
%ADD20R, 1.35X1.20*%
%LPD*%
G36*
X500247Y164916D02*
X460247Y164916D01*
X460247Y184916D01*
X500247Y184916D01*
X500247Y164916D01*
G37*
G54D10*
X500247Y164916D02*
X460247Y164916D01*
X460247Y184916D01*
X500247Y184916D01*
X500247Y164916D01*
G36*
X265297Y164916D02*
X225297Y164916D01*
X225297Y184916D01*
X265297Y184916D01*
X265297Y164916D01*
G37*
G54D10*
X265297Y164916D02*
X225297Y164916D01*
X225297Y184916D01*
X265297Y184916D01*
X265297Y164916D01*
G36*
X500247Y39822D02*
X460247Y39822D01*
X460247Y59822D01*
X500247Y59822D01*
X500247Y39822D01*
G37*
G54D10*
X500247Y39822D02*
X460247Y39822D01*
X460247Y59822D01*
X500247Y59822D01*
X500247Y39822D01*
G36*
X265297Y39822D02*
X225297Y39822D01*
X225297Y59822D01*
X265297Y59822D01*
X265297Y39822D01*
G37*
G54D10*
X265297Y39822D02*
X225297Y39822D01*
X225297Y59822D01*
X265297Y59822D01*
X265297Y39822D01*
X461798Y49947D02*
G54D11*
D03*
X265217Y174796D02*
G54D11*
D03*
X462067Y174796D02*
G54D11*
D03*
G36*
X265297Y58872D02*
X225297Y58872D01*
X225297Y78872D01*
X265297Y78872D01*
X265297Y58872D01*
G37*
G54D10*
X265297Y58872D02*
X225297Y58872D01*
X225297Y78872D01*
X265297Y78872D01*
X265297Y58872D01*
X264948Y49947D02*
G54D11*
D03*
X97310Y527600D02*
G54D12*
D03*
X127310Y527600D02*
G54D12*
D03*
X97310Y497600D02*
G54D12*
D03*
X127310Y497600D02*
G54D12*
D03*
X97310Y467600D02*
G54D12*
D03*
X127310Y467600D02*
G54D12*
D03*
X97310Y437600D02*
G54D12*
D03*
X127310Y437600D02*
G54D12*
D03*
X97310Y407600D02*
G54D12*
D03*
X127310Y407600D02*
G54D12*
D03*
X97310Y377600D02*
G54D12*
D03*
X127310Y377600D02*
G54D12*
D03*
X97310Y347600D02*
G54D12*
D03*
X127310Y347600D02*
G54D12*
D03*
X97310Y317600D02*
G54D12*
D03*
X127310Y317600D02*
G54D12*
D03*
G36*
X536900Y168600D02*
X549600Y168600D01*
X549600Y143200D01*
X549600Y130500D01*
X536900Y130500D01*
X536900Y168600D01*
G37*
G54D10*
X536900Y168600D02*
X549600Y168600D01*
X549600Y143200D01*
X549600Y130500D01*
X536900Y130500D01*
X536900Y168600D01*
G54D13*
X536900Y130500D02*
X536900Y168600D01*
X549600Y168600D01*
X549600Y143200D01*
X549600Y130500D01*
X536900Y130500D01*
X821887Y632913D02*
G54D11*
D03*
X821887Y382913D02*
G54D11*
D03*
X796487Y632913D02*
G54D11*
D03*
X796487Y382913D02*
G54D11*
D03*
X771087Y632913D02*
G54D11*
D03*
X771087Y382913D02*
G54D11*
D03*
X745687Y632913D02*
G54D11*
D03*
X745687Y382913D02*
G54D11*
D03*
X720287Y632913D02*
G54D11*
D03*
X720287Y382913D02*
G54D11*
D03*
X694887Y632913D02*
G54D11*
D03*
X694887Y382913D02*
G54D11*
D03*
X669487Y632913D02*
G54D11*
D03*
X669487Y382913D02*
G54D11*
D03*
X644087Y632913D02*
G54D11*
D03*
X644087Y382913D02*
G54D11*
D03*
X618687Y632913D02*
G54D11*
D03*
X618687Y382913D02*
G54D11*
D03*
X593287Y632913D02*
G54D11*
D03*
X593288Y382913D02*
G54D11*
D03*
X567887Y632913D02*
G54D11*
D03*
X567887Y382913D02*
G54D11*
D03*
X542487Y632913D02*
G54D11*
D03*
X542487Y382913D02*
G54D11*
D03*
X517087Y632913D02*
G54D11*
D03*
X517087Y382913D02*
G54D11*
D03*
X491687Y632913D02*
G54D11*
D03*
X491687Y382913D02*
G54D11*
D03*
X466287Y632913D02*
G54D11*
D03*
X466287Y382913D02*
G54D11*
D03*
X229470Y289284D02*
G54D14*
D03*
X229370Y326884D02*
G54D14*
D03*
X260051Y285710D02*
G54D14*
D03*
X260151Y248110D02*
G54D14*
D03*
X359600Y293800D02*
G54D15*
D03*
X359600Y281100D02*
G54D15*
D03*
X359600Y268400D02*
G54D15*
D03*
X359600Y255700D02*
G54D15*
D03*
X308800Y255700D02*
G54D15*
D03*
X308800Y268400D02*
G54D15*
D03*
X308800Y281100D02*
G54D15*
D03*
X308800Y293800D02*
G54D15*
D03*
X359044Y315079D02*
G54D16*
D03*
X343144Y315079D02*
G54D16*
D03*
X394453Y295251D02*
G54D16*
D03*
X378552Y295251D02*
G54D16*
D03*
X394453Y269851D02*
G54D16*
D03*
X378552Y269851D02*
G54D16*
D03*
X378881Y221273D02*
G54D17*
D03*
X378881Y237174D02*
G54D17*
D03*
X841022Y751306D02*
G54D18*
D03*
X841022Y725906D02*
G54D18*
D03*
X841022Y700506D02*
G54D18*
D03*
X841022Y776706D02*
G54D18*
D03*
X433213Y739453D02*
G54D18*
D03*
X433213Y690325D02*
G54D18*
D03*
X432499Y789296D02*
G54D18*
D03*
G36*
X870159Y785949D02*
X870159Y766899D01*
X832059Y766899D01*
X832059Y785949D01*
X870159Y785949D01*
G37*
G54D10*
X870159Y785949D02*
X870159Y766899D01*
X832059Y766899D01*
X832059Y785949D01*
X870159Y785949D01*
G36*
X870159Y761025D02*
X870159Y741975D01*
X832059Y741975D01*
X832059Y761025D01*
X870159Y761025D01*
G37*
G54D10*
X870159Y761025D02*
X870159Y741975D01*
X832059Y741975D01*
X832059Y761025D01*
X870159Y761025D01*
G36*
X870159Y735387D02*
X870159Y716337D01*
X832059Y716337D01*
X832059Y735387D01*
X870159Y735387D01*
G37*
G54D10*
X870159Y735387D02*
X870159Y716337D01*
X832059Y716337D01*
X832059Y735387D01*
X870159Y735387D01*
G36*
X870159Y709987D02*
X870159Y690937D01*
X832059Y690937D01*
X832059Y709987D01*
X870159Y709987D01*
G37*
G54D10*
X870159Y709987D02*
X870159Y690937D01*
X832059Y690937D01*
X832059Y709987D01*
X870159Y709987D01*
G36*
X445947Y798649D02*
X445947Y779599D01*
X407847Y779599D01*
X407847Y798649D01*
X445947Y798649D01*
G37*
G54D10*
X445947Y798649D02*
X445947Y779599D01*
X407847Y779599D01*
X407847Y798649D01*
X445947Y798649D01*
G36*
X445947Y748861D02*
X445947Y729811D01*
X407847Y729811D01*
X407847Y748861D01*
X445947Y748861D01*
G37*
G54D10*
X445947Y748861D02*
X445947Y729811D01*
X407847Y729811D01*
X407847Y748861D01*
X445947Y748861D01*
G36*
X445947Y700086D02*
X445947Y681036D01*
X407847Y681036D01*
X407847Y700086D01*
X445947Y700086D01*
G37*
G54D10*
X445947Y700086D02*
X445947Y681036D01*
X407847Y681036D01*
X407847Y700086D01*
X445947Y700086D01*
X1014976Y218174D02*
G54D18*
D03*
X989576Y218174D02*
G54D18*
D03*
X964176Y218174D02*
G54D18*
D03*
X1040376Y218174D02*
G54D18*
D03*
X1003124Y625983D02*
G54D18*
D03*
X953995Y625983D02*
G54D18*
D03*
X1052966Y626697D02*
G54D18*
D03*
G36*
X1049619Y189037D02*
X1030569Y189037D01*
X1030569Y227137D01*
X1049619Y227137D01*
X1049619Y189037D01*
G37*
G54D10*
X1049619Y189037D02*
X1030569Y189037D01*
X1030569Y227137D01*
X1049619Y227137D01*
X1049619Y189037D01*
G36*
X1024695Y189037D02*
X1005645Y189037D01*
X1005645Y227137D01*
X1024695Y227137D01*
X1024695Y189037D01*
G37*
G54D10*
X1024695Y189037D02*
X1005645Y189037D01*
X1005645Y227137D01*
X1024695Y227137D01*
X1024695Y189037D01*
G36*
X999057Y189037D02*
X980007Y189037D01*
X980007Y227136D01*
X999057Y227136D01*
X999057Y189037D01*
G37*
G54D10*
X999057Y189037D02*
X980007Y189037D01*
X980007Y227136D01*
X999057Y227136D01*
X999057Y189037D01*
G36*
X973657Y189037D02*
X954607Y189037D01*
X954607Y227137D01*
X973657Y227136D01*
X973657Y189037D01*
G37*
G54D10*
X973657Y189037D02*
X954607Y189037D01*
X954607Y227137D01*
X973657Y227136D01*
X973657Y189037D01*
G36*
X1062319Y613249D02*
X1043269Y613249D01*
X1043269Y651349D01*
X1062319Y651349D01*
X1062319Y613249D01*
G37*
G54D10*
X1062319Y613249D02*
X1043269Y613249D01*
X1043269Y651349D01*
X1062319Y651349D01*
X1062319Y613249D01*
G36*
X1012532Y613249D02*
X993482Y613249D01*
X993481Y651349D01*
X1012531Y651349D01*
X1012532Y613249D01*
G37*
G54D10*
X1012532Y613249D02*
X993482Y613249D01*
X993481Y651349D01*
X1012531Y651349D01*
X1012532Y613249D01*
G36*
X963756Y613249D02*
X944706Y613249D01*
X944706Y651349D01*
X963756Y651349D01*
X963756Y613249D01*
G37*
G54D10*
X963756Y613249D02*
X944706Y613249D01*
X944706Y651349D01*
X963756Y651349D01*
X963756Y613249D01*
X879800Y549600D02*
G54D12*
D03*
X879800Y524200D02*
G54D12*
D03*
X879800Y498800D02*
G54D12*
D03*
X879800Y473400D02*
G54D12*
D03*
X384500Y511500D02*
G54D19*
D03*
X983999Y563249D02*
G54D19*
D03*
X445593Y255586D02*
G54D16*
D03*
X429693Y255586D02*
G54D16*
D03*
X473740Y257771D02*
G54D20*
D03*
X498440Y257771D02*
G54D20*
D03*
X445253Y333351D02*
G54D16*
D03*
X429352Y333351D02*
G54D16*
D03*
X473400Y333700D02*
G54D20*
D03*
X498100Y333700D02*
G54D20*
D03*
X445593Y280986D02*
G54D16*
D03*
X429693Y280986D02*
G54D16*
D03*
X473740Y283171D02*
G54D20*
D03*
X498440Y283171D02*
G54D20*
D03*
X543250Y136850D02*
G54D19*
D03*
X543250Y149550D02*
G54D19*
D03*
X542707Y163449D02*
G54D19*
D03*
X543250Y67000D02*
G54D19*
D03*
X543250Y79700D02*
G54D19*
D03*
X543250Y92400D02*
G54D19*
D03*
G36*
X536900Y98750D02*
X549600Y98750D01*
X549600Y73350D01*
X549600Y60650D01*
X536900Y60650D01*
X536900Y98750D01*
G37*
G54D10*
X536900Y98750D02*
X549600Y98750D01*
X549600Y73350D01*
X549600Y60650D01*
X536900Y60650D01*
X536900Y98750D01*
G54D13*
X536900Y60650D02*
X536900Y98750D01*
X549600Y98750D01*
X549600Y73350D01*
X549600Y60650D01*
X536900Y60650D01*
M02*
