M48
INCH
T01C0.0157
T02C0.0433
T03C0.1181
%
G05
G90
T01
X013390Y013640
X014020Y017260
X014520Y017760
X013140Y018390
X013520Y019210
X015140Y020140
X014530Y021920
X016640Y021640
X016640Y018140
X019490Y027940
X018640Y029140
X027890Y026140
X030640Y028640
X030890Y022140
X029140Y022140
X028690Y019950
X038330Y017880
X038640Y015140
X039140Y010890
X041140Y010890
X038740Y022180
X039940Y023030
X021370Y006430
X021390Y005890
X021390Y005390
X021390Y003640
X021390Y003140
X021390Y002640
T02
X010430Y001970
X010440Y006880
X018190Y006880
X018180Y001970
X018360Y015080
X019360Y015080
X020360Y015080
X021360Y015080
X022360Y015080
X023360Y015080
X024360Y015080
X025360Y015080
X026360Y015080
X027360Y015080
X028360Y015080
X029360Y015080
X030360Y015080
X031360Y015080
X032360Y015080
X034640Y018640
X034640Y019640
X034640Y020640
X034640Y021640
X032360Y024920
X031360Y024920
X030360Y024920
X029360Y024920
X028360Y024920
X027360Y024920
X026360Y024920
X025360Y024920
X024360Y024920
X023360Y024920
X022360Y024920
X021360Y024920
X020360Y024920
X019360Y024920
X018360Y024920
X017060Y027180
X017060Y029110
X017030Y031070
X005010Y020770
X003830Y020770
X003830Y019590
X005010Y019590
X005010Y018410
X003830Y018410
X003830Y017230
X005010Y017230
X005010Y016050
X003830Y016050
X003830Y014870
X005010Y014870
X005010Y013690
X003830Y013690
X003830Y012500
X005010Y012500
X033110Y027580
X033110Y028580
X033110Y029580
X033110Y030580
X037560Y024650
X039490Y024650
X041460Y024670
X040960Y008590
X039960Y008590
X038960Y008590
X037960Y008590
T03
X007310Y003090
X007310Y030090
X035810Y030090
X035810Y003090
M30
