%FSLAX34Y34*%
%MOMM*%
%LNCOPPER_BOTTOM*%
G71*
G01*
%ADD10C, 2.30*%
%ADD11C, 2.10*%
%ADD12C, 0.80*%
%ADD13C, 2.00*%
%ADD14C, 0.00*%
%ADD15C, 0.01*%
%ADD16R, 2.00X1.30*%
%ADD17R, 3.60X1.80*%
%ADD18R, 1.43X0.80*%
%ADD19R, 1.80X3.60*%
%ADD20R, 0.80X1.43*%
%ADD21C, 0.30*%
%ADD22R, 0.60X0.80*%
%ADD23R, 1.30X1.80*%
%ADD24R, 1.00X0.70*%
%ADD25C, 3.70*%
%ADD26C, 0.60*%
%ADD27R, 0.65X1.27*%
%ADD28C, 0.80*%
%ADD29R, 1.27X0.65*%
%ADD30C, 0.40*%
%LPD*%
X461798Y49947D02*
G54D10*
D03*
X265217Y174796D02*
G54D10*
D03*
X462067Y174796D02*
G54D10*
D03*
X264948Y49947D02*
G54D10*
D03*
X97310Y527600D02*
G54D11*
D03*
X127310Y527600D02*
G54D11*
D03*
X97310Y497600D02*
G54D11*
D03*
X127310Y497600D02*
G54D11*
D03*
X97310Y467600D02*
G54D11*
D03*
X127310Y467600D02*
G54D11*
D03*
X97310Y437600D02*
G54D11*
D03*
X127310Y437600D02*
G54D11*
D03*
X97310Y407600D02*
G54D11*
D03*
X127310Y407600D02*
G54D11*
D03*
X97310Y377600D02*
G54D11*
D03*
X127310Y377600D02*
G54D11*
D03*
X97310Y347600D02*
G54D11*
D03*
X127310Y347600D02*
G54D11*
D03*
X97310Y317600D02*
G54D11*
D03*
X127310Y317600D02*
G54D11*
D03*
X821887Y632913D02*
G54D10*
D03*
X821887Y382913D02*
G54D10*
D03*
X796487Y632913D02*
G54D10*
D03*
X796487Y382913D02*
G54D10*
D03*
X771087Y632913D02*
G54D10*
D03*
X771087Y382913D02*
G54D10*
D03*
X745687Y632913D02*
G54D10*
D03*
X745687Y382913D02*
G54D10*
D03*
X720287Y632913D02*
G54D10*
D03*
X720287Y382913D02*
G54D10*
D03*
X694887Y632913D02*
G54D10*
D03*
X694887Y382913D02*
G54D10*
D03*
X669487Y632913D02*
G54D10*
D03*
X669487Y382913D02*
G54D10*
D03*
X644087Y632913D02*
G54D10*
D03*
X644087Y382913D02*
G54D10*
D03*
X618687Y632913D02*
G54D10*
D03*
X618687Y382913D02*
G54D10*
D03*
X593287Y632913D02*
G54D10*
D03*
X593288Y382913D02*
G54D10*
D03*
X567887Y632913D02*
G54D10*
D03*
X567887Y382913D02*
G54D10*
D03*
X542487Y632913D02*
G54D10*
D03*
X542487Y382913D02*
G54D10*
D03*
X517087Y632913D02*
G54D10*
D03*
X517087Y382913D02*
G54D10*
D03*
X491687Y632913D02*
G54D10*
D03*
X491687Y382913D02*
G54D10*
D03*
X466287Y632913D02*
G54D10*
D03*
X466287Y382913D02*
G54D10*
D03*
X340050Y346400D02*
G54D12*
D03*
X740100Y562300D02*
G54D12*
D03*
X784550Y562300D02*
G54D12*
D03*
X368799Y451001D02*
G54D12*
D03*
X422600Y460700D02*
G54D12*
D03*
X333700Y467050D02*
G54D12*
D03*
X841022Y751306D02*
G54D13*
D03*
X841022Y725906D02*
G54D13*
D03*
X841022Y700506D02*
G54D13*
D03*
X841022Y776706D02*
G54D13*
D03*
X433213Y739453D02*
G54D13*
D03*
X433213Y690325D02*
G54D13*
D03*
X432499Y789296D02*
G54D13*
D03*
X1014976Y218174D02*
G54D13*
D03*
X989576Y218174D02*
G54D13*
D03*
X964176Y218174D02*
G54D13*
D03*
X1040376Y218174D02*
G54D13*
D03*
X1003124Y625983D02*
G54D13*
D03*
X953995Y625983D02*
G54D13*
D03*
X1052966Y626697D02*
G54D13*
D03*
X879800Y549600D02*
G54D11*
D03*
X879800Y524200D02*
G54D11*
D03*
X879800Y498800D02*
G54D11*
D03*
X879800Y473400D02*
G54D11*
D03*
X384500Y511500D02*
G54D12*
D03*
X343399Y487832D02*
G54D12*
D03*
X356099Y438301D02*
G54D12*
D03*
X422600Y549600D02*
G54D12*
D03*
X369064Y556775D02*
G54D12*
D03*
X778200Y727400D02*
G54D12*
D03*
X473400Y740100D02*
G54D12*
D03*
X495031Y709608D02*
G54D12*
D03*
X1014490Y584880D02*
G54D12*
D03*
X983999Y563249D02*
G54D12*
D03*
X1044900Y276550D02*
G54D12*
D03*
X994100Y276550D02*
G54D12*
D03*
X973554Y454194D02*
G54D12*
D03*
X981400Y384500D02*
G54D12*
D03*
X728641Y506811D02*
G54D12*
D03*
X543250Y136850D02*
G54D12*
D03*
X543250Y149550D02*
G54D12*
D03*
X542707Y163449D02*
G54D12*
D03*
X543250Y67000D02*
G54D12*
D03*
X543250Y79700D02*
G54D12*
D03*
X543250Y92400D02*
G54D12*
D03*
X708350Y663900D02*
G54D12*
D03*
G36*
X166742Y201146D02*
X166742Y189146D01*
X129742Y189146D01*
X129742Y201146D01*
X166742Y201146D01*
G37*
G54D14*
X166742Y201146D02*
X166742Y189146D01*
X129742Y189146D01*
X129742Y201146D01*
X166742Y201146D01*
G54D15*
X129742Y201146D02*
X166742Y201146D01*
X166742Y189146D01*
X129742Y189146D01*
X129742Y201146D01*
G36*
X166742Y153146D02*
X166742Y141146D01*
X129742Y141146D01*
X129742Y153146D01*
X166742Y153146D01*
G37*
G54D14*
X166742Y153146D02*
X166742Y141146D01*
X129742Y141146D01*
X129742Y153146D01*
X166742Y153146D01*
G54D15*
X129742Y153146D02*
X166742Y153146D01*
X166742Y141146D01*
X129742Y141146D01*
X129742Y153146D01*
X326183Y95659D02*
G54D16*
D03*
X326083Y133259D02*
G54D16*
D03*
X280432Y91676D02*
G54D17*
D03*
X280432Y136976D02*
G54D17*
D03*
G36*
X419650Y423552D02*
X410650Y423552D01*
X410650Y415552D01*
X419650Y415552D01*
X419650Y423552D01*
G37*
G54D14*
X419650Y423552D02*
X410650Y423552D01*
X410650Y415552D01*
X419650Y415552D01*
X419650Y423552D01*
G54D15*
X419650Y415552D02*
X419650Y423552D01*
X410650Y423552D01*
X410650Y415552D01*
X419650Y415552D01*
G36*
X419650Y404552D02*
X410651Y404552D01*
X410651Y396552D01*
X419650Y396552D01*
X419650Y404552D01*
G37*
G54D14*
X419650Y404552D02*
X410651Y404552D01*
X410651Y396552D01*
X419650Y396552D01*
X419650Y404552D01*
G54D15*
X419650Y396552D02*
X419650Y404552D01*
X410651Y404552D01*
X410651Y396552D01*
X419650Y396552D01*
G36*
X398651Y414052D02*
X389650Y414052D01*
X389651Y406052D01*
X398650Y406052D01*
X398651Y414052D01*
G37*
G54D14*
X398651Y414052D02*
X389650Y414052D01*
X389651Y406052D01*
X398650Y406052D01*
X398651Y414052D01*
G54D15*
X398650Y406052D02*
X398651Y414052D01*
X389650Y414052D01*
X389651Y406052D01*
X398650Y406052D01*
X310798Y405270D02*
G54D18*
D03*
X310792Y383966D02*
G54D18*
D03*
X335597Y383969D02*
G54D18*
D03*
X335631Y405269D02*
G54D18*
D03*
X107168Y228454D02*
G54D19*
D03*
X152468Y228454D02*
G54D19*
D03*
X817182Y339893D02*
G54D20*
D03*
X795882Y339859D02*
G54D20*
D03*
G36*
X546000Y533844D02*
X546000Y531844D01*
X555000Y531844D01*
X555000Y533844D01*
X546000Y533844D01*
G37*
G54D14*
X546000Y533844D02*
X546000Y531844D01*
X555000Y531844D01*
X555000Y533844D01*
X546000Y533844D01*
G54D14*
X555000Y533844D02*
X546000Y533844D01*
X546000Y531844D01*
X555000Y531844D01*
X555000Y533844D01*
G36*
X546000Y528844D02*
X546000Y526844D01*
X555000Y526844D01*
X555000Y528844D01*
X546000Y528844D01*
G37*
G54D14*
X546000Y528844D02*
X546000Y526844D01*
X555000Y526844D01*
X555000Y528844D01*
X546000Y528844D01*
G54D14*
X555000Y528844D02*
X546000Y528844D01*
X546000Y526844D01*
X555000Y526844D01*
X555000Y528844D01*
G36*
X546000Y523844D02*
X546000Y521844D01*
X555000Y521844D01*
X555000Y523844D01*
X546000Y523844D01*
G37*
G54D14*
X546000Y523844D02*
X546000Y521844D01*
X555000Y521844D01*
X555000Y523844D01*
X546000Y523844D01*
G54D14*
X555000Y523844D02*
X546000Y523844D01*
X546000Y521844D01*
X555000Y521844D01*
X555000Y523844D01*
G36*
X546000Y518844D02*
X546000Y516844D01*
X555000Y516844D01*
X555000Y518844D01*
X546000Y518844D01*
G37*
G54D14*
X546000Y518844D02*
X546000Y516844D01*
X555000Y516844D01*
X555000Y518844D01*
X546000Y518844D01*
G54D14*
X555000Y518844D02*
X546000Y518844D01*
X546000Y516844D01*
X555000Y516844D01*
X555000Y518844D01*
G36*
X546000Y513844D02*
X546000Y511844D01*
X555000Y511844D01*
X555000Y513844D01*
X546000Y513844D01*
G37*
G54D14*
X546000Y513844D02*
X546000Y511844D01*
X555000Y511844D01*
X555000Y513844D01*
X546000Y513844D01*
G54D14*
X555000Y513844D02*
X546000Y513844D01*
X546000Y511844D01*
X555000Y511844D01*
X555000Y513844D01*
G36*
X590000Y513844D02*
X590000Y511844D01*
X599000Y511844D01*
X599000Y513844D01*
X590000Y513844D01*
G37*
G54D14*
X590000Y513844D02*
X590000Y511844D01*
X599000Y511844D01*
X599000Y513844D01*
X590000Y513844D01*
G54D14*
X599000Y513844D02*
X590000Y513844D01*
X590000Y511844D01*
X599000Y511844D01*
X599000Y513844D01*
G36*
X590000Y518844D02*
X590000Y516844D01*
X599000Y516844D01*
X599000Y518844D01*
X590000Y518844D01*
G37*
G54D14*
X590000Y518844D02*
X590000Y516844D01*
X599000Y516844D01*
X599000Y518844D01*
X590000Y518844D01*
G54D14*
X599000Y518844D02*
X590000Y518844D01*
X590000Y516844D01*
X599000Y516844D01*
X599000Y518844D01*
G36*
X590000Y523844D02*
X590000Y521844D01*
X599000Y521844D01*
X599000Y523844D01*
X590000Y523844D01*
G37*
G54D14*
X590000Y523844D02*
X590000Y521844D01*
X599000Y521844D01*
X599000Y523844D01*
X590000Y523844D01*
G54D14*
X599000Y523844D02*
X590000Y523844D01*
X590000Y521844D01*
X599000Y521844D01*
X599000Y523844D01*
G36*
X590000Y528844D02*
X590000Y526844D01*
X599000Y526844D01*
X599000Y528844D01*
X590000Y528844D01*
G37*
G54D14*
X590000Y528844D02*
X590000Y526844D01*
X599000Y526844D01*
X599000Y528844D01*
X590000Y528844D01*
G54D14*
X599000Y528844D02*
X590000Y528844D01*
X590000Y526844D01*
X599000Y526844D01*
X599000Y528844D01*
G36*
X590000Y533844D02*
X590000Y531844D01*
X599000Y531844D01*
X599000Y533844D01*
X590000Y533844D01*
G37*
G54D14*
X590000Y533844D02*
X590000Y531844D01*
X599000Y531844D01*
X599000Y533844D01*
X590000Y533844D01*
G54D14*
X599000Y533844D02*
X590000Y533844D01*
X590000Y531844D01*
X599000Y531844D01*
X599000Y533844D01*
G54D21*
X550317Y527979D02*
X566079Y527979D01*
X568650Y530550D01*
X568650Y632150D01*
G54D21*
X551886Y533136D02*
X558536Y533136D01*
X562300Y536900D01*
X562300Y568650D01*
X555950Y575000D01*
X511500Y575000D01*
X491687Y594813D01*
X491687Y632913D01*
X559116Y549740D02*
G54D22*
D03*
X543216Y549740D02*
G54D22*
D03*
X587780Y577879D02*
G54D22*
D03*
X571880Y577879D02*
G54D22*
D03*
G54D21*
X540738Y553777D02*
X540799Y522424D01*
X570831Y522444D01*
X576222Y527930D01*
X576198Y545502D01*
X581250Y549330D01*
G54D21*
X595775Y549732D02*
X595724Y542456D01*
X584931Y536109D01*
X585019Y527709D01*
X592978Y527710D01*
G54D21*
X594101Y522678D02*
X602367Y522678D01*
X605019Y525566D01*
X605019Y531076D01*
X603081Y533015D01*
X592979Y533015D01*
G36*
X239982Y417868D02*
X247982Y417868D01*
X247982Y403568D01*
X239982Y403568D01*
X239982Y417868D01*
G37*
G54D14*
X239982Y417868D02*
X247982Y417868D01*
X247982Y403568D01*
X239982Y403568D01*
X239982Y417868D01*
G36*
X261284Y417874D02*
X269284Y417875D01*
X269285Y403575D01*
X261285Y403574D01*
X261284Y417874D01*
G37*
G54D14*
X261284Y417874D02*
X269284Y417875D01*
X269285Y403575D01*
X261285Y403574D01*
X261284Y417874D01*
X244800Y435300D02*
G54D23*
D03*
X277300Y435400D02*
G54D23*
D03*
G54D21*
X243982Y410718D02*
X243982Y434482D01*
X244800Y435300D01*
X212500Y467600D01*
X127310Y467600D01*
G54D21*
X277015Y437354D02*
X384315Y437354D01*
X408115Y437354D02*
G54D24*
D03*
X408115Y456354D02*
G54D24*
D03*
X384315Y437354D02*
G54D24*
D03*
X384315Y456354D02*
G54D24*
D03*
X384315Y446854D02*
G54D24*
D03*
X185658Y764292D02*
G54D25*
D03*
X909558Y764292D02*
G54D25*
D03*
X909558Y78492D02*
G54D25*
D03*
X185658Y78492D02*
G54D25*
D03*
G54D26*
X152468Y228454D02*
X152468Y195872D01*
X150742Y194146D01*
G54D26*
X131742Y148146D02*
X131742Y65758D01*
X155900Y41600D01*
X252823Y41059D01*
X264948Y49947D01*
X265260Y95659D01*
X326183Y95659D01*
G54D26*
X542003Y70492D02*
X615764Y71074D01*
X816300Y270200D01*
X816300Y377326D01*
X821887Y382913D01*
G54D26*
X542707Y163449D02*
X682796Y162096D01*
X797250Y276550D01*
X797250Y382150D01*
X796487Y382913D01*
X796487Y402787D01*
X816300Y422600D01*
X905200Y422600D01*
X943300Y384500D01*
X943300Y181300D01*
X956000Y168600D01*
X1032200Y168600D01*
X1044900Y181300D01*
X1044900Y213650D01*
X1040376Y218174D01*
G54D26*
X326083Y133259D02*
X265679Y133259D01*
X265217Y174796D01*
X693717Y713129D02*
G54D27*
D03*
X706417Y713129D02*
G54D27*
D03*
X719117Y713128D02*
G54D27*
D03*
X731817Y713129D02*
G54D27*
D03*
X731816Y763929D02*
G54D27*
D03*
X719117Y763929D02*
G54D27*
D03*
X706416Y763929D02*
G54D27*
D03*
X693716Y763929D02*
G54D27*
D03*
X722360Y687129D02*
G54D20*
D03*
G36*
X739663Y694272D02*
X747663Y694272D01*
X747663Y679972D01*
X739663Y679972D01*
X739663Y694272D01*
G37*
G54D14*
X739663Y694272D02*
X747663Y694272D01*
X747663Y679972D01*
X739663Y679972D01*
X739663Y694272D01*
X752800Y714700D02*
G54D18*
D03*
X752806Y736003D02*
G54D18*
D03*
G54D26*
X97310Y317600D02*
X97310Y238312D01*
X107168Y228454D01*
G54D28*
X127310Y347600D02*
X127310Y286090D01*
X143200Y270200D01*
X181300Y270200D01*
X206700Y244800D01*
X206700Y187650D01*
X219400Y174950D01*
X265063Y174950D01*
X265217Y174796D01*
G54D26*
X127310Y347600D02*
X131700Y347600D01*
X155900Y371800D01*
X155900Y422600D01*
X143200Y435300D01*
X129610Y435300D01*
X97511Y434783D01*
G54D21*
X265284Y410725D02*
X397201Y410724D01*
X397200Y473400D01*
X546025Y473372D01*
X545999Y512408D01*
G54D21*
X310792Y383966D02*
X335597Y383969D01*
X335597Y350853D01*
X340050Y346400D01*
G54D21*
X603081Y533015D02*
X729865Y533015D01*
X797250Y600400D01*
X797250Y632150D01*
X796487Y632913D01*
G54D21*
X549600Y517850D02*
X594050Y517850D01*
G54D21*
X599000Y513497D02*
X599000Y521844D01*
G54D21*
X580518Y549943D02*
X580518Y555118D01*
X587700Y562300D01*
X740100Y562300D01*
G54D21*
X408115Y437354D02*
X552615Y437354D01*
X660726Y438477D01*
X784550Y562300D01*
X822650Y600400D01*
X822650Y632150D01*
X821887Y632913D01*
X618850Y538400D02*
G54D18*
D03*
X618884Y559700D02*
G54D18*
D03*
G54D21*
X587780Y577879D02*
X587780Y568570D01*
X594050Y562300D01*
G54D21*
X384543Y447992D02*
X373173Y447992D01*
X368799Y451001D01*
G54D21*
X422600Y460700D02*
X412461Y460700D01*
X408115Y456354D01*
G54D21*
X384315Y456354D02*
X384315Y460885D01*
X378150Y467050D01*
X333700Y467050D01*
X318285Y482229D01*
X318462Y506548D01*
X288993Y507085D01*
X544164Y434689D02*
G54D18*
D03*
X544170Y413386D02*
G54D18*
D03*
G54D21*
X542487Y382913D02*
X542487Y411704D01*
X544170Y413386D01*
G54D21*
X466287Y632913D02*
X112213Y632913D01*
X67000Y587700D01*
X67000Y437910D01*
X97310Y407600D01*
G54D21*
X97310Y377600D02*
X97310Y379590D01*
X54300Y422600D01*
X54300Y587700D01*
X117800Y651200D01*
X575000Y651200D01*
X593287Y632913D01*
G54D26*
X964176Y218174D02*
X962350Y448000D01*
X930702Y479750D01*
X930600Y562300D01*
X917900Y575000D01*
X841700Y575000D01*
X821887Y594813D01*
X821887Y632913D01*
X821887Y681372D01*
X841022Y700506D01*
G54D26*
X879800Y498800D02*
X930702Y498800D01*
G36*
X370300Y523339D02*
X361300Y523339D01*
X361300Y515339D01*
X370300Y515339D01*
X370300Y523339D01*
G37*
G54D14*
X370300Y523339D02*
X361300Y523339D01*
X361300Y515339D01*
X370300Y515339D01*
X370300Y523339D01*
G54D15*
X370300Y515339D02*
X370300Y523339D01*
X361300Y523339D01*
X361300Y515339D01*
X370300Y515339D01*
G36*
X370300Y504339D02*
X361300Y504339D01*
X361300Y496339D01*
X370300Y496339D01*
X370300Y504339D01*
G37*
G54D14*
X370300Y504339D02*
X361300Y504339D01*
X361300Y496339D01*
X370300Y496339D01*
X370300Y504339D01*
G54D15*
X370300Y496339D02*
X370300Y504339D01*
X361300Y504339D01*
X361300Y496339D01*
X370300Y496339D01*
G36*
X349300Y513839D02*
X340300Y513839D01*
X340300Y505839D01*
X349300Y505839D01*
X349300Y513839D01*
G37*
G54D14*
X349300Y513839D02*
X340300Y513839D01*
X340300Y505839D01*
X349300Y505839D01*
X349300Y513839D01*
G54D15*
X349300Y505839D02*
X349300Y513839D01*
X340300Y513839D01*
X340300Y505839D01*
X349300Y505839D01*
G54D21*
X368300Y497839D02*
X368300Y476900D01*
X387980Y456958D01*
G54D21*
X368300Y521839D02*
X374161Y521839D01*
X384500Y511500D01*
G54D21*
X343399Y487832D02*
X343548Y510438D01*
G36*
X247150Y563100D02*
X255150Y563100D01*
X255150Y548800D01*
X247150Y548800D01*
X247150Y563100D01*
G37*
G54D14*
X247150Y563100D02*
X255150Y563100D01*
X255150Y548800D01*
X247150Y548800D01*
X247150Y563100D01*
G36*
X268453Y563106D02*
X276453Y563106D01*
X276453Y548806D01*
X268453Y548806D01*
X268453Y563106D01*
G37*
G54D14*
X268453Y563106D02*
X276453Y563106D01*
X276453Y548806D01*
X268453Y548806D01*
X268453Y563106D01*
G36*
X297132Y563918D02*
X305132Y563918D01*
X305132Y549618D01*
X297132Y549618D01*
X297132Y563918D01*
G37*
G54D14*
X297132Y563918D02*
X305132Y563918D01*
X305132Y549618D01*
X297132Y549618D01*
X297132Y563918D01*
G36*
X318434Y563924D02*
X326434Y563925D01*
X326435Y549625D01*
X318435Y549624D01*
X318434Y563924D01*
G37*
G54D14*
X318434Y563924D02*
X326434Y563925D01*
X326435Y549625D01*
X318435Y549624D01*
X318434Y563924D01*
X288993Y507085D02*
G54D20*
D03*
X267690Y507079D02*
G54D20*
D03*
X316547Y504619D02*
G54D18*
D03*
X316581Y525919D02*
G54D18*
D03*
G36*
X408400Y561439D02*
X399400Y561439D01*
X399400Y553439D01*
X408400Y553439D01*
X408400Y561439D01*
G37*
G54D14*
X408400Y561439D02*
X399400Y561439D01*
X399400Y553439D01*
X408400Y553439D01*
X408400Y561439D01*
G54D15*
X408400Y553439D02*
X408400Y561439D01*
X399400Y561439D01*
X399400Y553439D01*
X408400Y553439D01*
G36*
X408400Y542439D02*
X399400Y542439D01*
X399400Y534439D01*
X408400Y534439D01*
X408400Y542439D01*
G37*
G54D14*
X408400Y542439D02*
X399400Y542439D01*
X399400Y534439D01*
X408400Y534439D01*
X408400Y542439D01*
G54D15*
X408400Y534439D02*
X408400Y542439D01*
X399400Y542439D01*
X399400Y534439D01*
X408400Y534439D01*
G36*
X387400Y551939D02*
X378400Y551939D01*
X378400Y543939D01*
X387400Y543939D01*
X387400Y551939D01*
G37*
G54D14*
X387400Y551939D02*
X378400Y551939D01*
X378400Y543939D01*
X387400Y543939D01*
X387400Y551939D01*
G54D15*
X387400Y543939D02*
X387400Y551939D01*
X378400Y551939D01*
X378400Y543939D01*
X387400Y543939D01*
G54D21*
X97310Y467600D02*
X99300Y467600D01*
X112405Y482295D01*
X178289Y482772D01*
X251150Y555950D01*
G54D21*
X409900Y536900D02*
X409900Y498800D01*
X378150Y467050D01*
G54D21*
X406272Y589588D02*
X408011Y589588D01*
X422600Y575000D01*
X422600Y549600D01*
X416250Y555950D01*
X403550Y555950D01*
G54D21*
X272453Y555956D02*
X300320Y555956D01*
X301132Y556768D01*
X301132Y541368D01*
X316581Y525919D01*
G54D21*
X322434Y556775D02*
X369064Y556775D01*
X380400Y545439D01*
X406272Y589588D02*
G54D20*
D03*
X384969Y589582D02*
G54D20*
D03*
G54D21*
X384969Y589582D02*
X384969Y588170D01*
X369064Y572264D01*
X369064Y556775D01*
G54D21*
X731817Y713129D02*
X751229Y713129D01*
G54D21*
X706417Y713129D02*
X719117Y713128D01*
X720287Y709113D01*
X720287Y632913D01*
G54D21*
X752807Y736540D02*
X802819Y736950D01*
X822650Y714700D01*
X822650Y676600D01*
G54D21*
X693717Y713129D02*
X693717Y693717D01*
X669487Y669487D01*
X669487Y632913D01*
G54D21*
X743663Y687122D02*
X816137Y687122D01*
X821887Y681372D01*
G54D21*
X752800Y714700D02*
X765500Y714700D01*
X778200Y727400D01*
G54D21*
X693716Y763929D02*
X693716Y754734D01*
X702000Y746450D01*
X784550Y746450D01*
X816300Y778200D01*
X839528Y778200D01*
X841022Y776706D01*
G54D21*
X731816Y763929D02*
X737138Y769250D01*
X752234Y769250D01*
X778200Y797250D01*
X848050Y797250D01*
X879800Y765500D01*
X879800Y714700D01*
X867100Y702000D01*
X842516Y702000D01*
X841022Y700506D01*
X752200Y747950D02*
G54D18*
D03*
X752234Y769250D02*
G54D18*
D03*
X646160Y801429D02*
G54D20*
D03*
G36*
X663463Y808572D02*
X671463Y808572D01*
X671463Y794272D01*
X663463Y794272D01*
X663463Y808572D01*
G37*
G54D14*
X663463Y808572D02*
X671463Y808572D01*
X671463Y794272D01*
X663463Y794272D01*
X663463Y808572D01*
X646160Y782379D02*
G54D20*
D03*
G36*
X663463Y789522D02*
X671463Y789522D01*
X671463Y775222D01*
X663463Y775222D01*
X663463Y789522D01*
G37*
G54D14*
X663463Y789522D02*
X671463Y789522D01*
X671463Y775222D01*
X663463Y775222D01*
X663463Y789522D01*
G54D21*
X706416Y763929D02*
X706416Y773784D01*
X695650Y784550D01*
X669641Y784550D01*
X667463Y782372D01*
G54D21*
X719117Y763929D02*
X719117Y780133D01*
X695650Y803600D01*
X669641Y803600D01*
X667463Y801422D01*
G54D21*
X646160Y801429D02*
X495188Y801429D01*
X433213Y739453D01*
G54D21*
X433213Y690325D02*
X442675Y690325D01*
X530550Y778200D01*
X641981Y778200D01*
X646160Y782379D01*
X562300Y778200D02*
G54D18*
D03*
X562306Y799503D02*
G54D18*
D03*
G36*
X500812Y768110D02*
X494448Y774474D01*
X488791Y768818D01*
X495155Y762454D01*
X500812Y768110D01*
G37*
G54D14*
X500812Y768110D02*
X494448Y774474D01*
X488791Y768818D01*
X495155Y762454D01*
X500812Y768110D01*
G54D15*
X495155Y762454D02*
X500812Y768110D01*
X494448Y774474D01*
X488791Y768818D01*
X495155Y762454D01*
G36*
X487377Y754676D02*
X481013Y761040D01*
X475356Y755383D01*
X481720Y749019D01*
X487377Y754676D01*
G37*
G54D14*
X487377Y754676D02*
X481013Y761040D01*
X475356Y755383D01*
X481720Y749019D01*
X487377Y754676D01*
G54D15*
X481720Y749019D02*
X487377Y754676D01*
X481013Y761040D01*
X475356Y755383D01*
X481720Y749019D01*
G36*
X479245Y776242D02*
X472881Y782606D01*
X467224Y776949D01*
X473588Y770586D01*
X479245Y776242D01*
G37*
G54D14*
X479245Y776242D02*
X472881Y782606D01*
X467224Y776949D01*
X473588Y770586D01*
X479245Y776242D01*
G54D15*
X473588Y770586D02*
X479245Y776242D01*
X472881Y782606D01*
X467224Y776949D01*
X473588Y770586D01*
G36*
X525069Y734682D02*
X518705Y741046D01*
X513048Y735390D01*
X519412Y729026D01*
X525069Y734682D01*
G37*
G54D14*
X525069Y734682D02*
X518705Y741046D01*
X513048Y735390D01*
X519412Y729026D01*
X525069Y734682D01*
G54D15*
X519412Y729026D02*
X525069Y734682D01*
X518705Y741046D01*
X513048Y735390D01*
X519412Y729026D01*
G36*
X511634Y721247D02*
X505270Y727612D01*
X499613Y721954D01*
X505977Y715590D01*
X511634Y721247D01*
G37*
G54D14*
X511634Y721247D02*
X505270Y727612D01*
X499613Y721954D01*
X505977Y715590D01*
X511634Y721247D01*
G54D15*
X505977Y715590D02*
X511634Y721247D01*
X505270Y727612D01*
X499613Y721954D01*
X505977Y715590D01*
G36*
X503502Y742814D02*
X497138Y749178D01*
X491482Y743521D01*
X497845Y737158D01*
X503502Y742814D01*
G37*
G54D14*
X503502Y742814D02*
X497138Y749178D01*
X491482Y743521D01*
X497845Y737158D01*
X503502Y742814D01*
G54D15*
X497845Y737158D02*
X503502Y742814D01*
X497138Y749178D01*
X491482Y743521D01*
X497845Y737158D01*
G54D21*
X495031Y709608D02*
X506408Y722308D01*
X536900Y752800D01*
X691783Y752800D01*
X693716Y754734D01*
G54D21*
X511500Y778200D02*
X506361Y778200D01*
X497736Y769574D01*
X497736Y764436D01*
X473400Y740100D01*
X511500Y778200D02*
G54D18*
D03*
X511506Y799503D02*
G54D18*
D03*
G36*
X477358Y685634D02*
X471701Y691290D01*
X481812Y701403D01*
X487469Y695746D01*
X477358Y685634D01*
G37*
G54D14*
X477358Y685634D02*
X471701Y691290D01*
X481812Y701403D01*
X487469Y695746D01*
X477358Y685634D01*
G36*
X462299Y700702D02*
X456642Y706358D01*
X466753Y716470D01*
X472410Y710814D01*
X462299Y700702D01*
G37*
G54D14*
X462299Y700702D02*
X456642Y706358D01*
X466753Y716470D01*
X472410Y710814D01*
X462299Y700702D01*
G54D21*
X479585Y693518D02*
X572868Y693518D01*
X613100Y733750D01*
X750553Y733750D01*
X752806Y736003D01*
G36*
X981169Y367813D02*
X993869Y367813D01*
X993870Y361313D01*
X981170Y361313D01*
X981169Y367813D01*
G37*
G54D14*
X981169Y367813D02*
X993869Y367813D01*
X993870Y361313D01*
X981170Y361313D01*
X981169Y367813D01*
G36*
X981169Y355113D02*
X993869Y355113D01*
X993870Y348613D01*
X981170Y348613D01*
X981169Y355113D01*
G37*
G54D14*
X981169Y355113D02*
X993869Y355113D01*
X993870Y348613D01*
X981170Y348613D01*
X981169Y355113D01*
G36*
X981169Y342413D02*
X993869Y342413D01*
X993869Y335913D01*
X981169Y335913D01*
X981169Y342413D01*
G37*
G54D14*
X981169Y342413D02*
X993869Y342413D01*
X993869Y335913D01*
X981169Y335913D01*
X981169Y342413D01*
G36*
X981169Y329712D02*
X993869Y329713D01*
X993870Y323213D01*
X981170Y323212D01*
X981169Y329712D01*
G37*
G54D14*
X981169Y329712D02*
X993869Y329713D01*
X993870Y323213D01*
X981170Y323212D01*
X981169Y329712D01*
X1038319Y326463D02*
G54D29*
D03*
G36*
X1031970Y342413D02*
X1044670Y342413D01*
X1044670Y335913D01*
X1031970Y335913D01*
X1031970Y342413D01*
G37*
G54D14*
X1031970Y342413D02*
X1044670Y342413D01*
X1044670Y335913D01*
X1031970Y335913D01*
X1031970Y342413D01*
X1038320Y351863D02*
G54D29*
D03*
G36*
X1031969Y367813D02*
X1044669Y367813D01*
X1044670Y361313D01*
X1031970Y361313D01*
X1031969Y367813D01*
G37*
G54D14*
X1031969Y367813D02*
X1044669Y367813D01*
X1044670Y361313D01*
X1031970Y361313D01*
X1031969Y367813D01*
G36*
X985090Y312629D02*
X993090Y312630D01*
X993091Y298330D01*
X985091Y298329D01*
X985090Y312629D01*
G37*
G54D14*
X985090Y312629D02*
X993090Y312630D01*
X993091Y298330D01*
X985091Y298329D01*
X985090Y312629D01*
G36*
X1006393Y312623D02*
X1014393Y312624D01*
X1014394Y298324D01*
X1006394Y298323D01*
X1006393Y312623D01*
G37*
G54D14*
X1006393Y312623D02*
X1014393Y312624D01*
X1014394Y298324D01*
X1006394Y298323D01*
X1006393Y312623D01*
G54D21*
X987519Y326463D02*
X987519Y307051D01*
G54D21*
X967253Y479683D02*
X972108Y474827D01*
X972108Y457293D01*
X1006800Y422601D01*
X1006800Y359100D01*
X999563Y351863D01*
X987519Y351863D01*
X987519Y339163D01*
G54D21*
X1010931Y305473D02*
X1011340Y274511D01*
X995440Y261030D01*
X963690Y261030D01*
G54D21*
X1038320Y364563D02*
X1029124Y364563D01*
X1020840Y356280D01*
X1020840Y273730D01*
X1039890Y254680D01*
X1040376Y218174D01*
X1022340Y306080D02*
G54D20*
D03*
X1043640Y306046D02*
G54D20*
D03*
G54D21*
X1044900Y276550D02*
X1044879Y320728D01*
X1038319Y326463D01*
X1075819Y412120D02*
G54D18*
D03*
X1075812Y390816D02*
G54D18*
D03*
X1056769Y412120D02*
G54D18*
D03*
X1056762Y390816D02*
G54D18*
D03*
G54D21*
X1038320Y351863D02*
X1048174Y351863D01*
X1058940Y362630D01*
X1058940Y388639D01*
X1056763Y390816D01*
G54D21*
X1038320Y339163D02*
X1054524Y339163D01*
X1077990Y362630D01*
X1077990Y388639D01*
X1075813Y390816D01*
G54D21*
X1075819Y412120D02*
X1075819Y563091D01*
X1005207Y635066D01*
G54D21*
X953995Y625983D02*
X964715Y615605D01*
X1052590Y527730D01*
X1052590Y416298D01*
X1056769Y412120D01*
G36*
X1048590Y503129D02*
X1056590Y503130D01*
X1056591Y488830D01*
X1048591Y488829D01*
X1048590Y503129D01*
G37*
G54D14*
X1048590Y503129D02*
X1056590Y503130D01*
X1056591Y488830D01*
X1048591Y488829D01*
X1048590Y503129D01*
G36*
X1069893Y503123D02*
X1077893Y503124D01*
X1077894Y488824D01*
X1069894Y488823D01*
X1069893Y503123D01*
G37*
G54D14*
X1069893Y503123D02*
X1077893Y503124D01*
X1077894Y488824D01*
X1069894Y488823D01*
X1069893Y503123D01*
G36*
X1042501Y557468D02*
X1048865Y563832D01*
X1043208Y569488D01*
X1036844Y563124D01*
X1042501Y557468D01*
G37*
G54D14*
X1042501Y557468D02*
X1048865Y563832D01*
X1043208Y569488D01*
X1036844Y563124D01*
X1042501Y557468D01*
G54D15*
X1036844Y563124D02*
X1042501Y557468D01*
X1048865Y563832D01*
X1043208Y569488D01*
X1036844Y563124D01*
G36*
X1029066Y570902D02*
X1035430Y577267D01*
X1029773Y582923D01*
X1023409Y576559D01*
X1029066Y570902D01*
G37*
G54D14*
X1029066Y570902D02*
X1035430Y577267D01*
X1029773Y582923D01*
X1023409Y576559D01*
X1029066Y570902D01*
G54D15*
X1023409Y576559D02*
X1029066Y570902D01*
X1035430Y577267D01*
X1029773Y582923D01*
X1023409Y576559D01*
G36*
X1050633Y579034D02*
X1056997Y585398D01*
X1051340Y591055D01*
X1044976Y584691D01*
X1050633Y579034D01*
G37*
G54D14*
X1050633Y579034D02*
X1056997Y585398D01*
X1051340Y591055D01*
X1044976Y584691D01*
X1050633Y579034D01*
G54D15*
X1044976Y584691D02*
X1050633Y579034D01*
X1056997Y585398D01*
X1051340Y591055D01*
X1044976Y584691D01*
G36*
X1009073Y533211D02*
X1015437Y539574D01*
X1009780Y545231D01*
X1003416Y538867D01*
X1009073Y533211D01*
G37*
G54D14*
X1009073Y533211D02*
X1015437Y539574D01*
X1009780Y545231D01*
X1003416Y538867D01*
X1009073Y533211D01*
G54D15*
X1003416Y538867D02*
X1009073Y533211D01*
X1015437Y539574D01*
X1009780Y545231D01*
X1003416Y538867D01*
G36*
X995638Y546646D02*
X1002002Y553010D01*
X996345Y558666D01*
X989981Y552302D01*
X995638Y546646D01*
G37*
G54D14*
X995638Y546646D02*
X1002002Y553010D01*
X996345Y558666D01*
X989981Y552302D01*
X995638Y546646D01*
G54D15*
X989981Y552302D02*
X995638Y546646D01*
X1002002Y553010D01*
X996345Y558666D01*
X989981Y552302D01*
G36*
X1017204Y554777D02*
X1023569Y561142D01*
X1017912Y566798D01*
X1011548Y560434D01*
X1017204Y554777D01*
G37*
G54D14*
X1017204Y554777D02*
X1023569Y561142D01*
X1017912Y566798D01*
X1011548Y560434D01*
X1017204Y554777D01*
G54D15*
X1011548Y560434D02*
X1017204Y554777D01*
X1023569Y561142D01*
X1017912Y566798D01*
X1011548Y560434D01*
G54D21*
X983999Y563249D02*
X996698Y551872D01*
X1027190Y521380D01*
X1027190Y366496D01*
X1029124Y364563D01*
G54D21*
X1052590Y546780D02*
X1052590Y551918D01*
X1043965Y560544D01*
X1038826Y560544D01*
X1014490Y584880D01*
G36*
X1048590Y553930D02*
X1056590Y553930D01*
X1056591Y539630D01*
X1048591Y539630D01*
X1048590Y553930D01*
G37*
G54D14*
X1048590Y553930D02*
X1056590Y553930D01*
X1056591Y539630D01*
X1048591Y539630D01*
X1048590Y553930D01*
G36*
X1069893Y553923D02*
X1077893Y553924D01*
X1077894Y539624D01*
X1069894Y539623D01*
X1069893Y553923D01*
G37*
G54D14*
X1069893Y553923D02*
X1077893Y553924D01*
X1077894Y539624D01*
X1069894Y539623D01*
X1069893Y553923D01*
G36*
X960024Y580922D02*
X965681Y586579D01*
X975793Y576467D01*
X970136Y570810D01*
X960024Y580922D01*
G37*
G54D14*
X960024Y580922D02*
X965681Y586579D01*
X975793Y576467D01*
X970136Y570810D01*
X960024Y580922D01*
G36*
X975092Y595981D02*
X980749Y601638D01*
X990861Y591527D01*
X985204Y585870D01*
X975092Y595981D01*
G37*
G54D14*
X975092Y595981D02*
X980749Y601638D01*
X990861Y591527D01*
X985204Y585870D01*
X975092Y595981D01*
G54D21*
X967909Y578695D02*
X946995Y578695D01*
X930600Y562300D01*
G54D21*
X989006Y298322D02*
X989006Y281644D01*
X994100Y276550D01*
G36*
X975137Y477455D02*
X969480Y471798D01*
X959369Y481910D01*
X965026Y487567D01*
X975137Y477455D01*
G37*
G54D14*
X975137Y477455D02*
X969480Y471798D01*
X959369Y481910D01*
X965026Y487567D01*
X975137Y477455D01*
G36*
X960069Y462397D02*
X954413Y456740D01*
X944300Y466850D01*
X949956Y472508D01*
X960069Y462397D01*
G37*
G54D14*
X960069Y462397D02*
X954413Y456740D01*
X944300Y466850D01*
X949956Y472508D01*
X960069Y462397D01*
G54D21*
X987519Y364563D02*
X987519Y378381D01*
X981400Y384500D01*
X303847Y453819D02*
G54D18*
D03*
X303881Y475119D02*
G54D18*
D03*
G54D21*
X303847Y453819D02*
X303847Y443547D01*
X297411Y437110D01*
G54D21*
X303881Y475119D02*
X311175Y475119D01*
X318285Y482229D01*
G54D21*
X335597Y383969D02*
X403567Y383969D01*
X417650Y398052D01*
G54D21*
X417651Y422052D02*
X417651Y430350D01*
X422600Y435300D01*
G36*
X536900Y168600D02*
X549600Y168600D01*
X549600Y143200D01*
X549600Y130500D01*
X536900Y130500D01*
X536900Y168600D01*
G37*
G54D14*
X536900Y168600D02*
X549600Y168600D01*
X549600Y143200D01*
X549600Y130500D01*
X536900Y130500D01*
X536900Y168600D01*
G54D30*
X536900Y130500D02*
X536900Y168600D01*
X549600Y168600D01*
X549600Y143200D01*
X549600Y130500D01*
X536900Y130500D01*
G36*
X536900Y98750D02*
X549600Y98750D01*
X549600Y73350D01*
X549600Y60650D01*
X536900Y60650D01*
X536900Y98750D01*
G37*
G54D14*
X536900Y98750D02*
X549600Y98750D01*
X549600Y73350D01*
X549600Y60650D01*
X536900Y60650D01*
X536900Y98750D01*
G54D30*
X536900Y60650D02*
X536900Y98750D01*
X549600Y98750D01*
X549600Y73350D01*
X549600Y60650D01*
X536900Y60650D01*
X594454Y545794D02*
G54D22*
D03*
X578554Y545794D02*
G54D22*
D03*
G54D21*
X244800Y549600D02*
X244800Y529969D01*
X267690Y507079D01*
G54D21*
X669487Y669487D02*
X702763Y669487D01*
X708350Y663900D01*
M02*
