%FSLAX34Y34*%
%MOMM*%
%LNSMDMASK_BOTTOM*%
G71*
G01*
%ADD10R, 2.40X1.70*%
%ADD11R, 4.00X2.20*%
%ADD12R, 1.83X1.20*%
%ADD13R, 2.20X4.00*%
%ADD14R, 1.20X1.83*%
%ADD15R, 1.00X1.20*%
%ADD16R, 1.70X2.20*%
%ADD17R, 1.40X1.10*%
%ADD18R, 1.05X1.67*%
%ADD19R, 1.67X1.05*%
%LPD*%
X326183Y95659D02*
G54D10*
D03*
X326083Y133259D02*
G54D10*
D03*
X280432Y91676D02*
G54D11*
D03*
X280432Y136976D02*
G54D11*
D03*
X310798Y405270D02*
G54D12*
D03*
X310792Y383966D02*
G54D12*
D03*
X335597Y383969D02*
G54D12*
D03*
X335631Y405269D02*
G54D12*
D03*
X107168Y228454D02*
G54D13*
D03*
X152468Y228454D02*
G54D13*
D03*
X817182Y339893D02*
G54D14*
D03*
X795882Y339859D02*
G54D14*
D03*
X559116Y549740D02*
G54D15*
D03*
X543216Y549740D02*
G54D15*
D03*
X587780Y577879D02*
G54D15*
D03*
X571880Y577879D02*
G54D15*
D03*
X244800Y435300D02*
G54D16*
D03*
X277300Y435400D02*
G54D16*
D03*
X408115Y437354D02*
G54D17*
D03*
X408115Y456354D02*
G54D17*
D03*
X384315Y437354D02*
G54D17*
D03*
X384315Y456354D02*
G54D17*
D03*
X384315Y446854D02*
G54D17*
D03*
X693717Y713129D02*
G54D18*
D03*
X706417Y713129D02*
G54D18*
D03*
X719117Y713128D02*
G54D18*
D03*
X731817Y713129D02*
G54D18*
D03*
X731816Y763929D02*
G54D18*
D03*
X719117Y763929D02*
G54D18*
D03*
X706416Y763929D02*
G54D18*
D03*
X693716Y763929D02*
G54D18*
D03*
X722360Y687129D02*
G54D14*
D03*
X752800Y714700D02*
G54D12*
D03*
X752806Y736003D02*
G54D12*
D03*
X618850Y538400D02*
G54D12*
D03*
X618884Y559700D02*
G54D12*
D03*
X544164Y434689D02*
G54D12*
D03*
X544170Y413386D02*
G54D12*
D03*
X288993Y507085D02*
G54D14*
D03*
X267690Y507079D02*
G54D14*
D03*
X316547Y504619D02*
G54D12*
D03*
X316581Y525919D02*
G54D12*
D03*
X406272Y589588D02*
G54D14*
D03*
X384969Y589582D02*
G54D14*
D03*
X752200Y747950D02*
G54D12*
D03*
X752234Y769250D02*
G54D12*
D03*
X646160Y801429D02*
G54D14*
D03*
X646160Y782379D02*
G54D14*
D03*
X562300Y778200D02*
G54D12*
D03*
X562306Y799503D02*
G54D12*
D03*
X511500Y778200D02*
G54D12*
D03*
X511506Y799503D02*
G54D12*
D03*
X1038319Y326463D02*
G54D19*
D03*
X1038320Y351863D02*
G54D19*
D03*
X1022340Y306080D02*
G54D14*
D03*
X1043640Y306046D02*
G54D14*
D03*
X1075819Y412120D02*
G54D12*
D03*
X1075812Y390816D02*
G54D12*
D03*
X1056769Y412120D02*
G54D12*
D03*
X1056762Y390816D02*
G54D12*
D03*
X303847Y453819D02*
G54D12*
D03*
X303881Y475119D02*
G54D12*
D03*
X594454Y545794D02*
G54D15*
D03*
X578554Y545794D02*
G54D15*
D03*
M02*
